<svg width="128" height="128" viewBox="0 0 128 128" fill="none" xmlns="http://www.w3.org/2000/svg">
<path d="M89.6 0H38.4C17.1923 0 0 17.1923 0 38.4V89.6C0 110.808 17.1923 128 38.4 128H89.6C110.808 128 128 110.808 128 89.6V38.4C128 17.1923 110.808 0 89.6 0Z" fill="#6210CC"/>
<path d="M89.5394 26.3808H56.4192C56.4192 26.3808 56.2912 26.3808 56.2272 26.3808C52.8096 26.3808 49.4816 27.0336 46.32 28.3264C43.0944 29.6448 40.2144 31.552 37.744 33.9968C35.2736 36.4416 33.3536 39.3216 32.0096 42.5344C30.6784 45.7472 30 49.1392 30 52.6208C30 56.1024 30.6784 59.4944 32.0096 62.7072C33.3408 65.92 35.2736 68.7872 37.744 71.2448C40.2144 73.7024 43.0944 75.6096 46.32 76.9152C49.5456 78.2336 52.9632 78.8608 56.4064 78.8608H76.1568C77.1168 78.8608 78.064 79.2448 78.7424 79.936C79.4336 80.6272 79.8176 81.5488 79.8176 82.5216C79.8176 83.4944 79.4336 84.416 78.7424 85.1072C78.064 85.7856 77.1168 86.1824 76.1568 86.1824H60.528C58.5568 86.1824 56.9568 87.7824 56.9568 89.7536V98.0608C56.9568 100.032 58.5568 101.632 60.528 101.632H75.7088C78.8832 101.632 81.776 101.018 84.2976 99.8144C91.0688 96.5888 95.2672 89.9584 95.2672 82.5088C95.2672 75.0592 91.0688 68.4288 84.2976 65.2032C81.776 64 78.896 63.3856 75.7088 63.3856H56.3808C54.9984 63.3856 53.552 63.1424 52.2208 62.592C50.8896 62.0544 49.6992 61.2736 48.688 60.2624C47.664 59.2512 46.8704 58.0736 46.32 56.7552C45.7696 55.4368 45.488 54.0416 45.488 52.608C45.488 51.1744 45.7696 49.7792 46.32 48.4608C46.8704 47.1424 47.664 45.9648 48.688 44.9536C49.712 43.9424 50.9024 43.1616 52.2208 42.624C53.552 42.0864 54.9728 41.8304 56.3808 41.8304H89.5138C91.485 41.8304 93.085 40.2304 93.085 38.2592V29.952C93.085 27.9808 91.485 26.3808 89.5138 26.3808H89.5394Z" fill="white"/>
</svg>
